<svg width="599" height="76" viewBox="0 0 599 76" fill="none" xmlns="http://www.w3.org/2000/svg">
<path d="M20.0533 3.80994H31.9818L51.2802 56.9945H40.1494L36.9584 48.1811H15.0767L11.8856 56.9945H0.754883L20.0533 3.80994ZM18.9136 37.6961H33.1215L25.9796 18.2078L18.9136 37.6961Z" fill="#D9D9D9"/>
<path d="M80.3655 0.0110474H90.8504V56.9945H80.3655V52.9677C79.2005 54.4366 77.7569 55.6396 76.0348 56.5766C74.3126 57.5137 72.3498 57.9822 70.1465 57.9822C67.3859 57.9822 64.8027 57.463 62.3967 56.4247C59.9908 55.3863 57.8634 53.9554 56.0146 52.1319C54.1911 50.2831 52.7602 48.1557 51.7218 45.7498C50.6835 43.3438 50.1643 40.7605 50.1643 38C50.1643 35.2395 50.6835 32.6562 51.7218 30.2503C52.7602 27.8443 54.1911 25.7296 56.0146 23.9061C57.8634 22.0573 59.9908 20.6137 62.3967 19.5754C64.8027 18.537 67.3859 18.0178 70.1465 18.0178C72.3498 18.0178 74.3126 18.4863 76.0348 19.4234C77.7569 20.3351 79.2005 21.5381 80.3655 23.0324V0.0110474ZM70.2984 47.9151C72.0206 47.9151 73.5781 47.4719 74.9711 46.5855C76.364 45.6991 77.4657 44.5088 78.2761 43.0146C79.0865 41.495 79.4918 39.8235 79.4918 38C79.4918 36.1512 79.0865 34.4797 78.2761 32.9855C77.4657 31.4912 76.364 30.3009 74.9711 29.4145C73.5781 28.5281 72.0206 28.0849 70.2984 28.0849C68.5509 28.0849 66.9681 28.5281 65.5498 29.4145C64.1316 30.3009 63.0045 31.5039 62.1688 33.0235C61.333 34.5177 60.9151 36.1765 60.9151 38C60.9151 39.8235 61.333 41.495 62.1688 43.0146C63.0299 44.5088 64.1695 45.6991 65.5878 46.5855C67.006 47.4719 68.5763 47.9151 70.2984 47.9151Z" fill="#D9D9D9"/>
<path d="M97.3448 19.0055H107.83V56.9945H97.3448V19.0055ZM102.663 14.6368C101.144 14.6368 99.8647 14.1303 98.8264 13.1172C97.788 12.1042 97.2688 10.8506 97.2688 9.35633C97.2688 7.8621 97.788 6.60847 98.8264 5.59543C99.8647 4.58239 101.131 4.07587 102.625 4.07587C104.119 4.07587 105.373 4.58239 106.386 5.59543C107.425 6.60847 107.944 7.8621 107.944 9.35633C107.944 10.8506 107.437 12.1042 106.424 13.1172C105.436 14.1303 104.183 14.6368 102.663 14.6368Z" fill="#D9D9D9"/>
<path d="M134.94 29.4905H128.102V56.9945H117.617V29.4905H112.374V19.0055H117.617V7.077H128.102V19.0055H134.94V29.4905Z" fill="#D9D9D9"/>
<path d="M163.495 19.0055H174.664L153.846 75.989H142.753L149.591 56.9945L135.915 19.0055H147.388L154.834 42.6727L163.495 19.0055Z" fill="#D9D9D9"/>
<path d="M203.246 19.0055H213.73V56.9945H203.208L202.714 53.0436C201.726 54.5125 200.46 55.7029 198.915 56.6146C197.37 57.5263 195.559 57.9822 193.482 57.9822C190.646 57.9822 187.999 57.4504 185.543 56.3867C183.086 55.323 180.921 53.8541 179.047 51.98C177.172 50.1058 175.704 47.9405 174.64 45.4838C173.601 43.0019 173.082 40.3427 173.082 37.5062C173.082 34.7963 173.576 32.2637 174.564 29.9084C175.552 27.553 176.945 25.4763 178.743 23.6782C180.541 21.88 182.605 20.4744 184.935 19.4614C187.29 18.4484 189.823 17.9418 192.533 17.9418C194.863 17.9418 196.952 18.4357 198.801 19.4234C200.675 20.4111 202.308 21.6648 203.701 23.1843L203.246 19.0055ZM193.216 47.9151C194.939 47.9151 196.496 47.4719 197.889 46.5855C199.282 45.6991 200.384 44.5088 201.194 43.0146C202.005 41.495 202.41 39.8235 202.41 38C202.41 36.1512 202.005 34.4797 201.194 32.9855C200.384 31.4912 199.282 30.3009 197.889 29.4145C196.496 28.5281 194.939 28.0849 193.216 28.0849C191.469 28.0849 189.886 28.5281 188.468 29.4145C187.05 30.3009 185.923 31.5039 185.087 33.0235C184.251 34.5177 183.833 36.1765 183.833 38C183.833 39.8235 184.251 41.495 185.087 43.0146C185.948 44.5088 187.088 45.6991 188.506 46.5855C189.924 47.4719 191.494 47.9151 193.216 47.9151Z" fill="#D9D9D9"/>
<path d="M274.604 56.9945H260.928L246.758 37.0883L244.783 39.4436V56.9945H234.298V3.80994H244.783V23.1463L260.966 3.80994H274.642L253.596 28.8827L274.604 56.9945Z" fill="#D9D9D9"/>
<path d="M274.341 43.0905V19.0055H284.826V40.2034C284.826 41.5456 285.142 42.7613 285.775 43.8503C286.434 44.914 287.308 45.7624 288.397 46.3956C289.486 47.0287 290.676 47.3453 291.968 47.3453C293.285 47.3453 294.487 47.0287 295.577 46.3956C296.666 45.7624 297.527 44.914 298.16 43.8503C298.793 42.7613 299.109 41.5456 299.109 40.2034V19.0055H309.594L309.632 56.9945H299.147L299.109 54.1073C297.843 55.323 296.349 56.2727 294.627 56.9565C292.93 57.6403 291.132 57.9822 289.232 57.9822C286.497 57.9822 284.003 57.3111 281.749 55.9688C279.495 54.6265 277.696 52.841 276.354 50.6123C275.012 48.3583 274.341 45.8511 274.341 43.0905Z" fill="#D9D9D9"/>
<path d="M314.677 56.9945V0.0110474H325.162V56.9945H314.677Z" fill="#D9D9D9"/>
<path d="M342.661 57.6783C340.711 57.5263 338.837 57.1211 337.038 56.4626C335.24 55.7788 333.632 54.8671 332.214 53.7274C330.821 52.5624 329.732 51.1695 328.947 49.5487L337.76 45.7498C338.039 46.155 338.457 46.5982 339.014 47.0794C339.571 47.5352 340.242 47.9405 341.027 48.295C341.838 48.6496 342.775 48.8269 343.839 48.8269C344.624 48.8269 345.383 48.7382 346.118 48.5609C346.852 48.3583 347.447 48.0418 347.903 47.6112C348.359 47.1554 348.587 46.5602 348.587 45.8257C348.587 45.0153 348.296 44.3948 347.713 43.9643C347.131 43.5337 346.422 43.2172 345.586 43.0146C344.776 42.7866 343.99 42.5967 343.231 42.4447C340.901 42.0395 338.697 41.3177 336.621 40.2793C334.569 39.2157 332.898 37.8481 331.606 36.1765C330.314 34.505 329.669 32.5043 329.669 30.1743C329.669 27.6164 330.34 25.413 331.682 23.5642C333.024 21.6901 334.772 20.2465 336.925 19.2335C339.077 18.2204 341.407 17.7139 343.915 17.7139C346.878 17.7139 349.626 18.3344 352.158 19.5754C354.691 20.8163 356.729 22.5638 358.274 24.8178L349.993 29.7184C349.664 29.2372 349.233 28.7814 348.701 28.3508C348.195 27.8949 347.599 27.5151 346.916 27.2111C346.257 26.8819 345.548 26.692 344.788 26.6413C343.801 26.5653 342.901 26.6286 342.091 26.8313C341.281 27.0085 340.635 27.3504 340.154 27.857C339.698 28.3635 339.47 29.0473 339.47 29.9084C339.47 30.7441 339.837 31.3646 340.571 31.7698C341.306 32.1497 342.154 32.441 343.117 32.6436C344.079 32.8208 344.928 33.0361 345.662 33.2894C347.865 33.9985 349.929 34.9102 351.854 36.0246C353.804 37.1136 355.374 38.4559 356.565 40.0514C357.755 41.647 358.312 43.5211 358.236 45.6738C358.236 48.1811 357.489 50.3844 355.995 52.2839C354.501 54.158 352.563 55.5889 350.183 56.5766C347.827 57.539 345.32 57.9062 342.661 57.6783Z" fill="#D9D9D9"/>
<path d="M397.331 32.8335V56.9945H386.846V35.7207C386.846 34.3784 386.516 33.1754 385.858 32.1117C385.225 31.0227 384.364 30.1616 383.275 29.5285C382.211 28.8953 381.021 28.5787 379.704 28.5787C378.387 28.5787 377.184 28.8953 376.095 29.5285C375.006 30.1616 374.145 31.0227 373.511 32.1117C372.878 33.1754 372.562 34.3784 372.562 35.7207V56.9945H362.077L362.039 0.0110474H372.524L372.562 21.8167C373.828 20.6011 375.31 19.6513 377.006 18.9675C378.729 18.2837 380.539 17.9418 382.439 17.9418C385.199 17.9418 387.694 18.613 389.923 19.9553C392.177 21.2975 393.975 23.0957 395.317 25.3497C396.659 27.5784 397.331 30.073 397.331 32.8335Z" fill="#D9D9D9"/>
<path d="M402.304 56.9945L402.266 19.0055H412.751L412.788 21.8167C414.055 20.6011 415.536 19.6513 417.233 18.9675C418.955 18.2837 420.766 17.9418 422.666 17.9418C424.059 17.9418 425.451 18.1444 426.844 18.5497L422.704 29.1486C421.792 28.7687 420.867 28.5787 419.93 28.5787C418.613 28.5787 417.41 28.8953 416.321 29.5285C415.232 30.1616 414.371 31.0227 413.738 32.1117C413.105 33.1754 412.788 34.3784 412.788 35.7207V56.9945H402.304Z" fill="#D9D9D9"/>
<path d="M443.255 57.9822C439.76 57.9822 436.569 57.0831 433.682 55.285C430.82 53.4868 428.528 51.0682 426.806 48.0291C425.109 44.99 424.261 41.6343 424.261 37.962C424.261 35.2015 424.754 32.6182 425.742 30.2123C426.73 27.781 428.085 25.6536 429.807 23.8301C431.554 21.9813 433.581 20.5378 435.885 19.4994C438.19 18.461 440.646 17.9418 443.255 17.9418C446.269 17.9418 449.017 18.5877 451.499 19.8793C454.006 21.1709 456.121 22.9311 457.843 25.1597C459.59 27.3884 460.831 29.9084 461.566 32.7195C462.326 35.5307 462.452 38.4559 461.946 41.495H435.581C435.911 42.6093 436.417 43.6224 437.101 44.5341C437.81 45.4205 438.671 46.1296 439.684 46.6615C440.722 47.1933 441.913 47.4719 443.255 47.4973C444.572 47.5226 445.788 47.2187 446.902 46.5855C448.016 45.9524 448.966 45.1039 449.751 44.0403L460.464 46.5095C458.919 49.8779 456.614 52.6384 453.55 54.7911C450.486 56.9185 447.054 57.9822 443.255 57.9822ZM435.201 33.7452H451.347C451.017 32.4789 450.46 31.3393 449.675 30.3262C448.89 29.3132 447.94 28.5154 446.826 27.9329C445.737 27.3504 444.547 27.0592 443.255 27.0592C441.989 27.0592 440.798 27.3504 439.684 27.9329C438.595 28.5154 437.658 29.3132 436.873 30.3262C436.113 31.314 435.556 32.4536 435.201 33.7452Z" fill="#D9D9D9"/>
<path d="M476.708 57.6783C474.758 57.5263 472.884 57.1211 471.086 56.4626C469.288 55.7788 467.68 54.8671 466.262 53.7274C464.869 52.5624 463.78 51.1695 462.994 49.5487L471.808 45.7498C472.086 46.155 472.504 46.5982 473.062 47.0794C473.619 47.5352 474.29 47.9405 475.075 48.295C475.885 48.6496 476.822 48.8269 477.886 48.8269C478.671 48.8269 479.431 48.7382 480.165 48.5609C480.9 48.3583 481.495 48.0418 481.951 47.6112C482.407 47.1554 482.635 46.5602 482.635 45.8257C482.635 45.0153 482.344 44.3948 481.761 43.9643C481.179 43.5337 480.469 43.2172 479.634 43.0146C478.823 42.7866 478.038 42.5967 477.278 42.4447C474.948 42.0395 472.745 41.3177 470.668 40.2793C468.617 39.2157 466.945 37.8481 465.654 36.1765C464.362 34.505 463.716 32.5043 463.716 30.1743C463.716 27.6164 464.387 25.413 465.73 23.5642C467.072 21.6901 468.819 20.2465 470.972 19.2335C473.125 18.2204 475.455 17.7139 477.962 17.7139C480.925 17.7139 483.673 18.3344 486.206 19.5754C488.738 20.8163 490.777 22.5638 492.322 24.8178L484.04 29.7184C483.711 29.2372 483.281 28.7814 482.749 28.3508C482.242 27.8949 481.647 27.5151 480.963 27.2111C480.305 26.8819 479.596 26.692 478.836 26.6413C477.848 26.5653 476.949 26.6286 476.139 26.8313C475.328 27.0085 474.682 27.3504 474.201 27.857C473.745 28.3635 473.517 29.0473 473.517 29.9084C473.517 30.7441 473.885 31.3646 474.619 31.7698C475.354 32.1497 476.202 32.441 477.164 32.6436C478.127 32.8208 478.975 33.0361 479.71 33.2894C481.913 33.9985 483.977 34.9102 485.902 36.0246C487.852 37.1136 489.422 38.4559 490.612 40.0514C491.803 41.647 492.36 43.5211 492.284 45.6738C492.284 48.1811 491.537 50.3844 490.043 52.2839C488.548 54.158 486.611 55.5889 484.23 56.5766C481.875 57.539 479.368 57.9062 476.708 57.6783Z" fill="#D9D9D9"/>
<path d="M516.752 29.4905H509.914V56.9945H499.429V29.4905H494.187V19.0055H499.429V7.077H509.914V19.0055H516.752V29.4905Z" fill="#D9D9D9"/>
<path d="M556.246 32.8335V56.9945H545.761V35.7207C545.761 34.3784 545.432 33.1754 544.773 32.1117C544.14 31.0227 543.279 30.1616 542.19 29.5285C541.126 28.8953 539.936 28.5787 538.619 28.5787C537.302 28.5787 536.099 28.8953 535.01 29.5285C533.921 30.1616 533.06 31.0227 532.427 32.1117C531.794 33.1754 531.477 34.3784 531.477 35.7207V56.9945H520.992L520.954 0.0110474H531.439L531.477 21.8167C532.744 20.6011 534.225 19.6513 535.922 18.9675C537.644 18.2837 539.455 17.9418 541.354 17.9418C544.115 17.9418 546.61 18.613 548.838 19.9553C551.092 21.2975 552.89 23.0957 554.233 25.3497C555.575 27.5784 556.246 30.073 556.246 32.8335Z" fill="#D9D9D9"/>
<path d="M588.323 19.0055H598.808V56.9945H588.285L587.791 53.0436C586.803 54.5125 585.537 55.7029 583.992 56.6146C582.447 57.5263 580.637 57.9822 578.56 57.9822C575.723 57.9822 573.077 57.4504 570.62 56.3867C568.164 55.323 565.998 53.8541 564.124 51.98C562.25 50.1058 560.781 47.9405 559.717 45.4838C558.679 43.0019 558.16 40.3427 558.16 37.5062C558.16 34.7963 558.654 32.2637 559.641 29.9084C560.629 27.553 562.022 25.4763 563.82 23.6782C565.618 21.88 567.682 20.4744 570.012 19.4614C572.368 18.4484 574.9 17.9418 577.61 17.9418C579.94 17.9418 582.03 18.4357 583.878 19.4234C585.752 20.4111 587.386 21.6648 588.779 23.1843L588.323 19.0055ZM578.294 47.9151C580.016 47.9151 581.574 47.4719 582.967 46.5855C584.359 45.6991 585.461 44.5088 586.272 43.0146C587.082 41.495 587.487 39.8235 587.487 38C587.487 36.1512 587.082 34.4797 586.272 32.9855C585.461 31.4912 584.359 30.3009 582.967 29.4145C581.574 28.5281 580.016 28.0849 578.294 28.0849C576.546 28.0849 574.964 28.5281 573.545 29.4145C572.127 30.3009 571 31.5039 570.164 33.0235C569.329 34.5177 568.911 36.1765 568.911 38C568.911 39.8235 569.329 41.495 570.164 43.0146C571.025 44.5088 572.165 45.6991 573.583 46.5855C575.002 47.4719 576.572 47.9151 578.294 47.9151Z" fill="#D9D9D9"/>
</svg>
